<?xml version="1.0" encoding="UTF-8" standalone="no"?><svg xmlns="http://www.w3.org/2000/svg" xmlns:xlink="http://www.w3.org/1999/xlink" contentScriptType="application/ecmascript" contentStyleType="text/css" height="388px" preserveAspectRatio="none" style="width:1636px;height:388px;" version="1.1" viewBox="0 0 1636 388" width="1636px" zoomAndPan="magnify"><defs><filter height="300%" id="f15n51v47ytrcp" width="300%" x="-1" y="-1"><feGaussianBlur result="blurOut" stdDeviation="2.0"/><feColorMatrix in="blurOut" result="blurOut2" type="matrix" values="0 0 0 0 0 0 0 0 0 0 0 0 0 0 0 0 0 0 .4 0"/><feOffset dx="4.0" dy="4.0" in="blurOut2" result="blurOut3"/><feBlend in="SourceGraphic" in2="blurOut3" mode="normal"/></filter></defs><g><!--cluster server--><polygon fill="#FFFFFF" filter="url(#f15n51v47ytrcp)" points="317,65,327,55,1328,55,1328,234,1318,244,317,244,317,65" style="stroke: #000000; stroke-width: 1.5;"/><line style="stroke: #000000; stroke-width: 1.5;" x1="1318" x2="1327" y1="65" y2="56"/><line style="stroke: #000000; stroke-width: 1.5;" x1="317" x2="1318" y1="65" y2="65"/><line style="stroke: #000000; stroke-width: 1.5;" x1="1318" x2="1318" y1="65" y2="244"/><text fill="#000000" font-family="sans-serif" font-size="14" font-weight="bold" lengthAdjust="spacingAndGlyphs" textLength="144" x="746.5" y="80.9951">Springboot server</text><!--entity controller--><rect fill="#FEFECE" filter="url(#f15n51v47ytrcp)" height="36.2969" style="stroke: #A80036; stroke-width: 1.5;" width="85" x="358" y="87"/><rect fill="#FEFECE" height="5" style="stroke: #A80036; stroke-width: 1.5;" width="10" x="353" y="92"/><rect fill="#FEFECE" height="5" style="stroke: #A80036; stroke-width: 1.5;" width="10" x="353" y="113.2969"/><text fill="#000000" font-family="sans-serif" font-size="14" lengthAdjust="spacingAndGlyphs" textLength="65" x="368" y="109.9951">controller</text><!--entity service--><rect fill="#FEFECE" filter="url(#f15n51v47ytrcp)" height="36.2969" style="stroke: #A80036; stroke-width: 1.5;" width="69" x="761" y="173"/><rect fill="#FEFECE" height="5" style="stroke: #A80036; stroke-width: 1.5;" width="10" x="756" y="178"/><rect fill="#FEFECE" height="5" style="stroke: #A80036; stroke-width: 1.5;" width="10" x="756" y="199.2969"/><text fill="#000000" font-family="sans-serif" font-size="14" lengthAdjust="spacingAndGlyphs" textLength="49" x="771" y="195.9951">service</text><!--entity repo--><rect fill="#FEFECE" filter="url(#f15n51v47ytrcp)" height="36.2969" style="stroke: #A80036; stroke-width: 1.5;" width="89" x="1231" y="130"/><rect fill="#FEFECE" height="5" style="stroke: #A80036; stroke-width: 1.5;" width="10" x="1226" y="135"/><rect fill="#FEFECE" height="5" style="stroke: #A80036; stroke-width: 1.5;" width="10" x="1226" y="156.2969"/><text fill="#000000" font-family="sans-serif" font-size="14" lengthAdjust="spacingAndGlyphs" textLength="69" x="1241" y="152.9951">repository</text><!--entity jms--><rect fill="#FEFECE" filter="url(#f15n51v47ytrcp)" height="60.5938" style="stroke: #A80036; stroke-width: 1.5;" width="151" x="325" y="174.5"/><rect fill="#FEFECE" height="5" style="stroke: #A80036; stroke-width: 1.5;" width="10" x="320" y="179.5"/><rect fill="#FEFECE" height="5" style="stroke: #A80036; stroke-width: 1.5;" width="10" x="320" y="225.0938"/><text fill="#000000" font-family="sans-serif" font-size="14" lengthAdjust="spacingAndGlyphs" textLength="44" x="335" y="197.4951">Spring</text><line style="stroke: #A80036; stroke-width: 1.0; stroke-dasharray: 1.0,2.0;" x1="326" x2="475" y1="200.7969" y2="200.7969"/><text fill="#000000" font-family="sans-serif" font-size="14" lengthAdjust="spacingAndGlyphs" textLength="119" x="341" y="217.792">Jackson Serializer</text><!--entity c--><ellipse cx="102" cy="124.5" fill="#FEFECE" filter="url(#f15n51v47ytrcp)" rx="8" ry="8" style="stroke: #A80036; stroke-width: 2.0;"/><path d="M102,132.5 L102,159.5 M89,140.5 L115,140.5 M102,159.5 L89,174.5 M102,159.5 L115,174.5 " fill="none" filter="url(#f15n51v47ytrcp)" style="stroke: #A80036; stroke-width: 2.0;"/><text fill="#000000" font-family="sans-serif" font-size="14" lengthAdjust="spacingAndGlyphs" textLength="39" x="82.5" y="194.4951">Client</text><path d="M6,8.5 L6,79.0313 A0,0 0 0 0 6,79.0313 L98,79.0313 L102,114.4375 L106,79.0313 L198,79.0313 A0,0 0 0 0 198,79.0313 L198,18.5 L188,8.5 L6,8.5 A0,0 0 0 0 6,8.5 " fill="#FBFB77" filter="url(#f15n51v47ytrcp)" style="stroke: #A80036; stroke-width: 1.0;"/><path d="M188,8.5 L188,18.5 L198,18.5 L188,8.5 " fill="#FBFB77" style="stroke: #A80036; stroke-width: 1.0;"/><text fill="#000000" font-family="sans-serif" font-size="13" lengthAdjust="spacingAndGlyphs" textLength="152" x="12" y="25.5669">Peut-être par exemple :</text><ellipse cx="17.5" cy="36.2656" fill="#000000" rx="2.5" ry="2.5" style="stroke: #000000; stroke-width: 0.0;"/><text fill="#000000" font-family="sans-serif" font-size="13" lengthAdjust="spacingAndGlyphs" textLength="49" x="23" y="40.6997">Angular</text><ellipse cx="17.5" cy="51.3984" fill="#000000" rx="2.5" ry="2.5" style="stroke: #000000; stroke-width: 0.0;"/><text fill="#000000" font-family="sans-serif" font-size="13" lengthAdjust="spacingAndGlyphs" textLength="160" x="23" y="55.8325">REST Client (insomnia, ..)</text><ellipse cx="17.5" cy="66.5313" fill="#000000" rx="2.5" ry="2.5" style="stroke: #000000; stroke-width: 0.0;"/><text fill="#000000" font-family="sans-serif" font-size="13" lengthAdjust="spacingAndGlyphs" textLength="49" x="23" y="70.9653">Android</text><!--entity db--><path d="M1538,124 C1538,114 1581,114 1581,114 C1581,114 1624,114 1624,124 L1624,173.5938 C1624,183.5938 1581,183.5938 1581,183.5938 C1581,183.5938 1538,183.5938 1538,173.5938 L1538,124 " fill="#FEFECE" filter="url(#f15n51v47ytrcp)" style="stroke: #000000; stroke-width: 1.5;"/><path d="M1538,124 C1538,134 1581,134 1581,134 C1581,134 1624,134 1624,124 " fill="none" style="stroke: #000000; stroke-width: 1.5;"/><text fill="#000000" font-family="sans-serif" font-size="14" lengthAdjust="spacingAndGlyphs" textLength="66" x="1548" y="150.9951">Database</text><path d="M1538,149.2969 C1538,159.2969 1581,159.2969 1581,159.2969 C1581,159.2969 1624,159.2969 1624,149.2969 " fill="none" style="stroke: #000000; stroke-width: 1.0;"/><text fill="#000000" font-family="sans-serif" font-size="14" lengthAdjust="spacingAndGlyphs" textLength="39" x="1554" y="171.292">Mysql</text><path d="M891,261 L891,376.9297 L1170,376.9297 L1170,271 L1160,261 L891,261 " fill="#FBFB77" filter="url(#f15n51v47ytrcp)" style="stroke: #A80036; stroke-width: 1.0;"/><path d="M1160,261 L1160,271 L1170,271 L1160,261 " fill="#FBFB77" style="stroke: #A80036; stroke-width: 1.0;"/><text fill="#000000" font-family="sans-serif" font-size="13" lengthAdjust="spacingAndGlyphs" textLength="258" x="897" y="278.0669">Le service peut appeler 0, 1 ou plusieurs</text><text fill="#000000" font-family="sans-serif" font-size="13" lengthAdjust="spacingAndGlyphs" textLength="145" x="897" y="293.1997">repositories au besoin.</text><text fill="#000000" font-family="sans-serif" font-size="13" lengthAdjust="spacingAndGlyphs" textLength="180" x="897" y="308.3325">Ces appels permettront de :</text><ellipse cx="902.5" cy="319.0313" fill="#000000" rx="2.5" ry="2.5" style="stroke: #000000; stroke-width: 0.0;"/><text fill="#000000" font-family="sans-serif" font-size="13" lengthAdjust="spacingAndGlyphs" textLength="168" x="908" y="323.4653">récupérer les informations</text><text fill="#000000" font-family="sans-serif" font-size="13" font-style="italic" lengthAdjust="spacingAndGlyphs" textLength="61" x="1080" y="323.4653">"simples"</text><text fill="#000000" font-family="sans-serif" font-size="13" lengthAdjust="spacingAndGlyphs" textLength="87" x="897" y="338.5981">vennant de la</text><text fill="#000000" font-family="sans-serif" font-size="13" font-style="italic" lengthAdjust="spacingAndGlyphs" textLength="29" x="988" y="338.5981">BDD</text><ellipse cx="902.5" cy="349.2969" fill="#000000" rx="2.5" ry="2.5" style="stroke: #000000; stroke-width: 0.0;"/><text fill="#000000" font-family="sans-serif" font-size="13" lengthAdjust="spacingAndGlyphs" textLength="136" x="908" y="353.731">de lancer les impacts</text><text fill="#000000" font-family="sans-serif" font-size="13" font-style="italic" lengthAdjust="spacingAndGlyphs" textLength="61" x="1048" y="353.731">"simples"</text><text fill="#000000" font-family="sans-serif" font-size="13" lengthAdjust="spacingAndGlyphs" textLength="95" x="897" y="368.8638">(insert/update)</text><!--link c to controller--><path d="M121.5854,152.6537 C168.0412,144.7166 285.9928,124.564 352.6766,113.1708 " fill="none" id="c-controller" style="stroke: #A80036; stroke-width: 1.0;"/><polygon fill="#A80036" points="357.7818,112.2986,348.2367,109.8716,352.8532,113.1407,349.5841,117.7573,357.7818,112.2986" style="stroke: #A80036; stroke-width: 1.0;"/><text fill="#000000" font-family="sans-serif" font-size="13" lengthAdjust="spacingAndGlyphs" textLength="65" x="229" y="121.0669">1. request</text><!--link controller to service--><path d="M433.6503,123.1051 C460.6537,136.9738 500.1988,155.3207 537,165 C612.4896,184.855 704.0461,189.7474 755.4497,190.8334 " fill="none" id="controller-service" style="stroke: #A80036; stroke-width: 1.0;"/><polygon fill="#A80036" points="760.6015,190.9323,751.68,186.7602,755.6024,190.8363,751.5264,194.7588,760.6015,190.9323" style="stroke: #A80036; stroke-width: 1.0;"/><text fill="#000000" font-family="sans-serif" font-size="13" lengthAdjust="spacingAndGlyphs" textLength="161" x="538" y="161.0669">2. appel le service métier</text><!--link controller to service--><path d="M448.3848,106.4253 C508.3715,109.2952 613.7586,117.9432 700,144 C722.8191,150.8945 746.8903,162.775 765.1575,172.8658 " fill="none" id="controller-service-1" style="stroke: #A80036; stroke-width: 1.0; stroke-dasharray: 7.0,7.0;"/><polygon fill="#A80036" points="443.0792,106.1809,451.8855,110.5909,448.0739,106.411,452.2538,102.5994,443.0792,106.1809" style="stroke: #A80036; stroke-width: 1.0;"/><text fill="#000000" font-family="sans-serif" font-size="13" lengthAdjust="spacingAndGlyphs" textLength="114" x="561.5" y="110.0669">7. retour données</text><!--link service to repo--><path d="M830.0054,195.3844 C896.5351,202.8772 1046.8587,215.1314 1170,191 C1192.7245,186.5468 1216.7296,177.1731 1236.0909,168.3109 " fill="none" id="service-repo" style="stroke: #A80036; stroke-width: 1.0;"/><polygon fill="#A80036" points="1240.9096,166.0722,1231.0621,166.2369,1236.3751,168.179,1234.433,173.492,1240.9096,166.0722" style="stroke: #A80036; stroke-width: 1.0;"/><text fill="#000000" font-family="sans-serif" font-size="13" lengthAdjust="spacingAndGlyphs" textLength="57" x="1002" y="187.0669">3. ordres</text><text fill="#000000" font-family="sans-serif" font-size="13" lengthAdjust="spacingAndGlyphs" textLength="60" x="1162.7436" y="185.3082">primaires</text><!--link service to repo--><path d="M835.2306,178.6103 C852.2368,173.8278 872.4215,168.8346 891,166 C1012.8845,147.4035 1158.7982,146.2627 1230.7969,147.0761 " fill="none" id="service-repo-1" style="stroke: #A80036; stroke-width: 1.0; stroke-dasharray: 7.0,7.0;"/><polygon fill="#A80036" points="830.0601,180.0851,839.8121,181.4628,834.8683,178.7135,837.6176,173.7697,830.0601,180.0851" style="stroke: #A80036; stroke-width: 1.0;"/><text fill="#000000" font-family="sans-serif" font-size="13" lengthAdjust="spacingAndGlyphs" textLength="98" x="981.5" y="144.0669">6. retour objets</text><!--link repo to db--><path d="M1320.2495,148.1465 C1376.8786,148.3318 1474.0536,148.6499 1532.4365,148.841 " fill="none" id="repo-db" style="stroke: #A80036; stroke-width: 1.0;"/><polygon fill="#A80036" points="1537.6145,148.858,1528.6278,144.8282,1532.6145,148.8414,1528.6013,152.8281,1537.6145,148.858" style="stroke: #A80036; stroke-width: 1.0;"/><text fill="#000000" font-family="sans-serif" font-size="13" lengthAdjust="spacingAndGlyphs" textLength="156" x="1351" y="145.0669">4. =&gt; select/update/... ?</text><!--link db to repo--><path d="M1537.9886,166.3455 C1528.2801,169.521 1517.9107,172.35 1508,174 C1438.7312,185.5323 1419.2349,185.7342 1350,174 C1341.6112,172.5782 1332.9077,170.3159 1324.536,167.7047 " fill="none" id="db-repo" style="stroke: #A80036; stroke-width: 1.0; stroke-dasharray: 7.0,7.0;"/><polygon fill="#A80036" points="1319.372,166.0381,1326.7084,172.6091,1324.1303,167.5738,1329.1655,164.9958,1319.372,166.0381" style="stroke: #A80036; stroke-width: 1.0;"/><text fill="#000000" font-family="sans-serif" font-size="13" lengthAdjust="spacingAndGlyphs" textLength="45" x="1406.5" y="170.0669">5. data</text><!--link controller to jms--><path d="M400.5,123.16 C400.5,135.9986 400.5,153.6332 400.5,169.246 " fill="none" id="controller-jms" style="stroke: #A80036; stroke-width: 1.0;"/><polygon fill="#A80036" points="400.5,174.4533,404.5,165.4533,400.5,169.4533,396.5,165.4533,400.5,174.4533" style="stroke: #A80036; stroke-width: 1.0;"/><text fill="#000000" font-family="sans-serif" font-size="13" lengthAdjust="spacingAndGlyphs" textLength="92" x="343" y="153.3169">8. serialization</text><!--link c to jms--><path d="M121.5854,159.215 C162.1178,165.8686 257.0759,181.4564 324.9227,192.5937 " fill="none" id="c-jms" style="stroke: #A80036; stroke-width: 1.0; stroke-dasharray: 7.0,7.0;"/><text fill="#000000" font-family="sans-serif" font-size="13" lengthAdjust="spacingAndGlyphs" textLength="48" x="237.5" y="173.0669">9. JSON</text><!--link service to service_note--><path d="M822.1386,209.2413 C841.0067,221.8555 867.1083,238.6959 891,252 C896.3989,255.0064 901.9536,258.0133 907.5928,260.9965 " fill="none" id="service-service_note" style="stroke: #A80036; stroke-width: 1.0; stroke-dasharray: 7.0,7.0;"/><!--
@startuml Deploy-pack

    actor "Client" as c
    note as client_note
        Peut-être par exemple :
        * Angular
        * REST Client (insomnia, ..)
        * Android
    end note

c .left. client_note

    node "Springboot server" as server {
        [controller] as controller
        [service] as service
        [repository] as repo
        [Spring\n....\n Jackson Serializer] as jms
    }

    database db [
        Database
        - - - -
        Mysql
    ]

    left to right direction

    c - -> controller: 1. request
    controller - -> service: 2. appel le service métier
    service - -> repo: 3. ordres "primaires"
    repo - -> db: 4. => select/update/... ?
    db ..> repo: 5. data
    service <. repo: 6. retour objets
    controller <.. service: 7. retour données
    controller -right-> jms: 8. serialization
    c .. jms: 9. JSON

    note as service_note
        Le service peut appeler 0, 1 ou plusieurs
        repositories au besoin.
        Ces appels permettront de :
        * récupérer les informations <i>"simples"</i>
        vennant de la <i>BDD</i>
        * de lancer les impacts <i>"simples"</i>
        (insert/update)
    end note

    service .. service_note

@enduml

PlantUML version 1.2019.06(Fri May 24 19:10:25 CEST 2019)
(GPL source distribution)
Java Runtime: OpenJDK Runtime Environment
JVM: OpenJDK 64-Bit Server VM
Java Version: 1.8.0_222-8u222-b10-1~deb9u1-b10
Operating System: Linux
OS Version: 5.2.0-3-amd64
Default Encoding: UTF-8
Language: fr
Country: FR
--></g></svg>