<?xml version="1.0" encoding="UTF-8" standalone="no"?><svg xmlns="http://www.w3.org/2000/svg" xmlns:xlink="http://www.w3.org/1999/xlink" contentScriptType="application/ecmascript" contentStyleType="text/css" height="1096px" preserveAspectRatio="none" style="width:1613px;height:1096px;background:#EEEEEE;" version="1.1" viewBox="0 0 1613 1096" width="1613px" zoomAndPan="magnify"><defs><linearGradient id="glsfpyizetwm20" x1="50%" x2="50%" y1="0%" y2="100%"><stop offset="0%" stop-color="#FFA500"/><stop offset="100%" stop-color="#FF8C00"/></linearGradient><linearGradient id="glsfpyizetwm21" x1="50%" x2="50%" y1="0%" y2="100%"><stop offset="0%" stop-color="#FFFFE0"/><stop offset="100%" stop-color="#FFFF00"/></linearGradient><linearGradient id="glsfpyizetwm22" x1="50%" x2="50%" y1="0%" y2="100%"><stop offset="0%" stop-color="#90EE90"/><stop offset="100%" stop-color="#9ACD32"/></linearGradient><filter height="300%" id="flsfpyizetwm2" width="300%" x="-1" y="-1"><feGaussianBlur result="blurOut" stdDeviation="2.0"/><feColorMatrix in="blurOut" result="blurOut2" type="matrix" values="0 0 0 0 0 0 0 0 0 0 0 0 0 0 0 0 0 0 .4 0"/><feOffset dx="4.0" dy="4.0" in="blurOut2" result="blurOut3"/><feBlend in="SourceGraphic" in2="blurOut3" mode="normal"/></filter></defs><g><rect fill="url(#glsfpyizetwm20)" height="1081.8984" rx="10" ry="10" style="stroke: #A80036; stroke-width: 1.0;" width="540" x="193.5" y="4"/><text fill="#000000" font-family="sans-serif" font-size="13" font-weight="bold" lengthAdjust="spacingAndGlyphs" textLength="48" x="439.5" y="16.0669">Spring</text><rect fill="url(#glsfpyizetwm21)" height="1081.8984" rx="10" ry="10" style="stroke: #A80036; stroke-width: 1.0;" width="505" x="735.5" y="4"/><text fill="#000000" font-family="sans-serif" font-size="13" font-weight="bold" lengthAdjust="spacingAndGlyphs" textLength="47" x="964.5" y="16.0669">Server</text><rect fill="url(#glsfpyizetwm22)" height="1081.8984" rx="10" ry="10" style="stroke: #A80036; stroke-width: 1.0;" width="81" x="1343.5" y="4"/><text fill="#000000" font-family="sans-serif" font-size="13" font-weight="bold" lengthAdjust="spacingAndGlyphs" textLength="75" x="1346.5" y="16.0669">Connector</text><rect fill="#FFFFFF" filter="url(#flsfpyizetwm2)" height="878.3203" style="stroke: #A80036; stroke-width: 1.0;" width="10" x="38.5" y="99.7891"/><rect fill="#FFFFFF" filter="url(#flsfpyizetwm2)" height="823.0547" style="stroke: #A80036; stroke-width: 1.0;" width="10" x="228.5" y="164.0547"/><rect fill="#FFFFFF" filter="url(#flsfpyizetwm2)" height="28" style="stroke: #A80036; stroke-width: 1.0;" width="10" x="233.5" y="201.1875"/><rect fill="#FFFFFF" filter="url(#flsfpyizetwm2)" height="28" style="stroke: #A80036; stroke-width: 1.0;" width="10" x="233.5" y="303.5859"/><rect fill="#FFFFFF" filter="url(#flsfpyizetwm2)" height="28" style="stroke: #A80036; stroke-width: 1.0;" width="10" x="233.5" y="898.8438"/><rect fill="#FFFFFF" filter="url(#flsfpyizetwm2)" height="29.1328" style="stroke: #A80036; stroke-width: 1.0;" width="10" x="486.5" y="832.5781"/><rect fill="#FFFFFF" filter="url(#flsfpyizetwm2)" height="29.1328" style="stroke: #A80036; stroke-width: 1.0;" width="10" x="654" y="367.7188"/><rect fill="#FFFFFF" filter="url(#flsfpyizetwm2)" height="377.4609" style="stroke: #A80036; stroke-width: 1.0;" width="10" x="804.5" y="425.9844"/><rect fill="#FFFFFF" filter="url(#flsfpyizetwm2)" height="319.1953" style="stroke: #A80036; stroke-width: 1.0;" width="10" x="963" y="455.1172"/><rect fill="#FFFFFF" filter="url(#flsfpyizetwm2)" height="260.9297" style="stroke: #A80036; stroke-width: 1.0;" width="10" x="1159" y="484.25"/><rect fill="#FFFFFF" filter="url(#flsfpyizetwm2)" height="28" style="stroke: #A80036; stroke-width: 1.0;" width="10" x="1164" y="681.0469"/><rect fill="#FFFFFF" filter="url(#flsfpyizetwm2)" height="130.5313" style="stroke: #A80036; stroke-width: 1.0;" width="10" x="1379" y="513.3828"/><rect fill="#FFFFFF" filter="url(#flsfpyizetwm2)" height="72.2656" style="stroke: #A80036; stroke-width: 1.0;" width="10" x="1556" y="542.5156"/><line style="stroke: #A80036; stroke-width: 1.0; stroke-dasharray: 5.0,5.0;" x1="43" x2="43" y1="89.7891" y2="996.1094"/><line style="stroke: #A80036; stroke-width: 1.0; stroke-dasharray: 5.0,5.0;" x1="233.5" x2="233.5" y1="89.7891" y2="996.1094"/><line style="stroke: #A80036; stroke-width: 1.0; stroke-dasharray: 5.0,5.0;" x1="491.5" x2="491.5" y1="89.7891" y2="996.1094"/><line style="stroke: #A80036; stroke-width: 1.0; stroke-dasharray: 5.0,5.0;" x1="658.5" x2="658.5" y1="89.7891" y2="996.1094"/><line style="stroke: #A80036; stroke-width: 1.0; stroke-dasharray: 5.0,5.0;" x1="809.5" x2="809.5" y1="89.7891" y2="996.1094"/><line style="stroke: #A80036; stroke-width: 1.0; stroke-dasharray: 5.0,5.0;" x1="967.5" x2="967.5" y1="89.7891" y2="996.1094"/><line style="stroke: #A80036; stroke-width: 1.0; stroke-dasharray: 5.0,5.0;" x1="1163.5" x2="1163.5" y1="89.7891" y2="996.1094"/><line style="stroke: #A80036; stroke-width: 1.0; stroke-dasharray: 5.0,5.0;" x1="1383.5" x2="1383.5" y1="89.7891" y2="996.1094"/><line style="stroke: #A80036; stroke-width: 1.0; stroke-dasharray: 5.0,5.0;" x1="1561" x2="1561" y1="89.7891" y2="996.1094"/><text fill="#000000" font-family="Aapex" font-size="17" lengthAdjust="spacingAndGlyphs" textLength="65" x="8" y="85.7798">Angular</text><ellipse cx="43.5" cy="13" fill="#FEFECE" filter="url(#flsfpyizetwm2)" rx="8" ry="8" style="stroke: #A80036; stroke-width: 2.0;"/><path d="M43.5,21 L43.5,48 M30.5,29 L56.5,29 M43.5,48 L30.5,63 M43.5,48 L56.5,63 " fill="none" filter="url(#flsfpyizetwm2)" style="stroke: #A80036; stroke-width: 2.0;"/><text fill="#000000" font-family="Aapex" font-size="17" lengthAdjust="spacingAndGlyphs" textLength="65" x="8" y="1010.8892">Angular</text><ellipse cx="43.5" cy="1024.8984" fill="#FEFECE" filter="url(#flsfpyizetwm2)" rx="8" ry="8" style="stroke: #A80036; stroke-width: 2.0;"/><path d="M43.5,1032.8984 L43.5,1059.8984 M30.5,1040.8984 L56.5,1040.8984 M43.5,1059.8984 L30.5,1074.8984 M43.5,1059.8984 L56.5,1074.8984 " fill="none" filter="url(#flsfpyizetwm2)" style="stroke: #A80036; stroke-width: 2.0;"/><rect fill="#FEFECE" filter="url(#flsfpyizetwm2)" height="33.7891" rx="10" ry="10" style="stroke: #A80036; stroke-width: 1.5;" width="68" x="197.5" y="51"/><text fill="#000000" font-family="Impact" font-size="17" lengthAdjust="spacingAndGlyphs" textLength="54" x="204.5" y="73.7798">Spring</text><rect fill="#FEFECE" filter="url(#flsfpyizetwm2)" height="33.7891" rx="10" ry="10" style="stroke: #A80036; stroke-width: 1.5;" width="68" x="197.5" y="995.1094"/><text fill="#000000" font-family="Impact" font-size="17" lengthAdjust="spacingAndGlyphs" textLength="54" x="204.5" y="1017.8892">Spring</text><rect fill="#FEFECE" filter="url(#flsfpyizetwm2)" height="33.7891" rx="10" ry="10" style="stroke: #A80036; stroke-width: 1.5;" width="170" x="404.5" y="51"/><text fill="#000000" font-family="Impact" font-size="17" lengthAdjust="spacingAndGlyphs" textLength="63" x="411.5" y="73.7798">Jackson</text><text fill="#000000" font-family="Impact" font-size="17" font-weight="bold" lengthAdjust="spacingAndGlyphs" textLength="88" x="479.5" y="73.7798">Serializer</text><rect fill="#FEFECE" filter="url(#flsfpyizetwm2)" height="33.7891" rx="10" ry="10" style="stroke: #A80036; stroke-width: 1.5;" width="170" x="404.5" y="995.1094"/><text fill="#000000" font-family="Impact" font-size="17" lengthAdjust="spacingAndGlyphs" textLength="63" x="411.5" y="1017.8892">Jackson</text><text fill="#000000" font-family="Impact" font-size="17" font-weight="bold" lengthAdjust="spacingAndGlyphs" textLength="88" x="479.5" y="1017.8892">Serializer</text><rect fill="#FEFECE" filter="url(#flsfpyizetwm2)" height="33.7891" rx="10" ry="10" style="stroke: #A80036; stroke-width: 1.5;" width="137" x="588.5" y="51"/><text fill="#000000" font-family="Impact" font-size="17" lengthAdjust="spacingAndGlyphs" textLength="54" x="595.5" y="73.7798">Spring</text><text fill="#000000" font-family="Impact" font-size="17" font-weight="bold" lengthAdjust="spacingAndGlyphs" textLength="64" x="654.5" y="73.7798">Router</text><rect fill="#FEFECE" filter="url(#flsfpyizetwm2)" height="33.7891" rx="10" ry="10" style="stroke: #A80036; stroke-width: 1.5;" width="137" x="588.5" y="995.1094"/><text fill="#000000" font-family="Impact" font-size="17" lengthAdjust="spacingAndGlyphs" textLength="54" x="595.5" y="1017.8892">Spring</text><text fill="#000000" font-family="Impact" font-size="17" font-weight="bold" lengthAdjust="spacingAndGlyphs" textLength="64" x="654.5" y="1017.8892">Router</text><rect fill="#FEFECE" filter="url(#flsfpyizetwm2)" height="33.7891" rx="10" ry="10" style="stroke: #A80036; stroke-width: 1.5;" width="136" x="739.5" y="51"/><text fill="#000000" font-family="Impact" font-size="17" lengthAdjust="spacingAndGlyphs" textLength="122" x="746.5" y="73.7798">UserController</text><rect fill="#FEFECE" filter="url(#flsfpyizetwm2)" height="33.7891" rx="10" ry="10" style="stroke: #A80036; stroke-width: 1.5;" width="136" x="739.5" y="995.1094"/><text fill="#000000" font-family="Impact" font-size="17" lengthAdjust="spacingAndGlyphs" textLength="122" x="746.5" y="1017.8892">UserController</text><rect fill="#FEFECE" filter="url(#flsfpyizetwm2)" height="33.7891" rx="10" ry="10" style="stroke: #A80036; stroke-width: 1.5;" width="153" x="889.5" y="51"/><text fill="#000000" font-family="Impact" font-size="17" lengthAdjust="spacingAndGlyphs" textLength="139" x="896.5" y="73.7798">UserCrudService</text><rect fill="#FEFECE" filter="url(#flsfpyizetwm2)" height="33.7891" rx="10" ry="10" style="stroke: #A80036; stroke-width: 1.5;" width="153" x="889.5" y="995.1094"/><text fill="#000000" font-family="Impact" font-size="17" lengthAdjust="spacingAndGlyphs" textLength="139" x="896.5" y="1017.8892">UserCrudService</text><rect fill="#FEFECE" filter="url(#flsfpyizetwm2)" height="33.7891" rx="10" ry="10" style="stroke: #A80036; stroke-width: 1.5;" width="141" x="1091.5" y="51"/><text fill="#000000" font-family="Impact" font-size="17" lengthAdjust="spacingAndGlyphs" textLength="127" x="1098.5" y="73.7798">UserRepository</text><rect fill="#FEFECE" filter="url(#flsfpyizetwm2)" height="33.7891" rx="10" ry="10" style="stroke: #A80036; stroke-width: 1.5;" width="141" x="1091.5" y="995.1094"/><text fill="#000000" font-family="Impact" font-size="17" lengthAdjust="spacingAndGlyphs" textLength="127" x="1098.5" y="1017.8892">UserRepository</text><rect fill="#FEFECE" filter="url(#flsfpyizetwm2)" height="33.7891" rx="10" ry="10" style="stroke: #A80036; stroke-width: 1.5;" width="57" x="1353.5" y="51"/><text fill="#000000" font-family="Impact" font-size="17" lengthAdjust="spacingAndGlyphs" textLength="43" x="1360.5" y="73.7798">JDBC</text><rect fill="#FEFECE" filter="url(#flsfpyizetwm2)" height="33.7891" rx="10" ry="10" style="stroke: #A80036; stroke-width: 1.5;" width="57" x="1353.5" y="995.1094"/><text fill="#000000" font-family="Impact" font-size="17" lengthAdjust="spacingAndGlyphs" textLength="43" x="1360.5" y="1017.8892">JDBC</text><text fill="#000000" font-family="sans-serif" font-size="14" lengthAdjust="spacingAndGlyphs" textLength="64" x="1526" y="86.4873">Mysql DB</text><path d="M1543,37.4922 C1543,27.4922 1561,27.4922 1561,27.4922 C1561,27.4922 1579,27.4922 1579,37.4922 L1579,63.4922 C1579,73.4922 1561,73.4922 1561,73.4922 C1561,73.4922 1543,73.4922 1543,63.4922 L1543,37.4922 " fill="#0000FF" filter="url(#flsfpyizetwm2)" style="stroke: #000000; stroke-width: 1.5;"/><path d="M1543,37.4922 C1543,47.4922 1561,47.4922 1561,47.4922 C1561,47.4922 1579,47.4922 1579,37.4922 " fill="none" style="stroke: #000000; stroke-width: 1.5;"/><text fill="#000000" font-family="sans-serif" font-size="14" lengthAdjust="spacingAndGlyphs" textLength="64" x="1526" y="1008.1045">Mysql DB</text><path d="M1543,1021.4063 C1543,1011.4063 1561,1011.4063 1561,1011.4063 C1561,1011.4063 1579,1011.4063 1579,1021.4063 L1579,1047.4063 C1579,1057.4063 1561,1057.4063 1561,1057.4063 C1561,1057.4063 1543,1057.4063 1543,1047.4063 L1543,1021.4063 " fill="#0000FF" filter="url(#flsfpyizetwm2)" style="stroke: #000000; stroke-width: 1.5;"/><path d="M1543,1021.4063 C1543,1031.4063 1561,1031.4063 1561,1031.4063 C1561,1031.4063 1579,1031.4063 1579,1021.4063 " fill="none" style="stroke: #000000; stroke-width: 1.5;"/><rect fill="#FFFFFF" filter="url(#flsfpyizetwm2)" height="878.3203" style="stroke: #A80036; stroke-width: 1.0;" width="10" x="38.5" y="99.7891"/><rect fill="#FFFFFF" filter="url(#flsfpyizetwm2)" height="823.0547" style="stroke: #A80036; stroke-width: 1.0;" width="10" x="228.5" y="164.0547"/><rect fill="#FFFFFF" filter="url(#flsfpyizetwm2)" height="28" style="stroke: #A80036; stroke-width: 1.0;" width="10" x="233.5" y="201.1875"/><rect fill="#FFFFFF" filter="url(#flsfpyizetwm2)" height="28" style="stroke: #A80036; stroke-width: 1.0;" width="10" x="233.5" y="303.5859"/><rect fill="#FFFFFF" filter="url(#flsfpyizetwm2)" height="28" style="stroke: #A80036; stroke-width: 1.0;" width="10" x="233.5" y="898.8438"/><rect fill="#FFFFFF" filter="url(#flsfpyizetwm2)" height="29.1328" style="stroke: #A80036; stroke-width: 1.0;" width="10" x="486.5" y="832.5781"/><rect fill="#FFFFFF" filter="url(#flsfpyizetwm2)" height="29.1328" style="stroke: #A80036; stroke-width: 1.0;" width="10" x="654" y="367.7188"/><rect fill="#FFFFFF" filter="url(#flsfpyizetwm2)" height="377.4609" style="stroke: #A80036; stroke-width: 1.0;" width="10" x="804.5" y="425.9844"/><rect fill="#FFFFFF" filter="url(#flsfpyizetwm2)" height="319.1953" style="stroke: #A80036; stroke-width: 1.0;" width="10" x="963" y="455.1172"/><rect fill="#FFFFFF" filter="url(#flsfpyizetwm2)" height="260.9297" style="stroke: #A80036; stroke-width: 1.0;" width="10" x="1159" y="484.25"/><rect fill="#FFFFFF" filter="url(#flsfpyizetwm2)" height="28" style="stroke: #A80036; stroke-width: 1.0;" width="10" x="1164" y="681.0469"/><rect fill="#FFFFFF" filter="url(#flsfpyizetwm2)" height="130.5313" style="stroke: #A80036; stroke-width: 1.0;" width="10" x="1379" y="513.3828"/><rect fill="#FFFFFF" filter="url(#flsfpyizetwm2)" height="72.2656" style="stroke: #A80036; stroke-width: 1.0;" width="10" x="1556" y="542.5156"/><rect fill="#EEEEEE" filter="url(#flsfpyizetwm2)" height="3" style="stroke: #EEEEEE; stroke-width: 1.0;" width="1598" x="3" y="120.3555"/><line style="stroke: #000000; stroke-width: 1.0;" x1="3" x2="1601" y1="120.3555" y2="120.3555"/><line style="stroke: #000000; stroke-width: 1.0;" x1="3" x2="1601" y1="123.3555" y2="123.3555"/><rect fill="#EEEEEE" filter="url(#flsfpyizetwm2)" height="23.1328" style="stroke: #000000; stroke-width: 2.0;" width="52" x="776" y="109.7891"/><text fill="#000000" font-family="sans-serif" font-size="13" font-weight="bold" lengthAdjust="spacingAndGlyphs" textLength="33" x="782" y="125.856">Aller</text><polygon fill="#A80036" points="216.5,160.0547,226.5,164.0547,216.5,168.0547,220.5,164.0547" style="stroke: #A80036; stroke-width: 1.0;"/><line style="stroke: #A80036; stroke-width: 1.0;" x1="48.5" x2="222.5" y1="164.0547" y2="164.0547"/><text fill="#000000" font-family="sans-serif" font-size="13" lengthAdjust="spacingAndGlyphs" textLength="76" x="55.5" y="158.9888">ask user list</text><line style="stroke: #A80036; stroke-width: 1.0;" x1="243.5" x2="285.5" y1="193.1875" y2="193.1875"/><line style="stroke: #A80036; stroke-width: 1.0;" x1="285.5" x2="285.5" y1="193.1875" y2="206.1875"/><line style="stroke: #A80036; stroke-width: 1.0;" x1="244.5" x2="285.5" y1="206.1875" y2="206.1875"/><polygon fill="#A80036" points="254.5,202.1875,244.5,206.1875,254.5,210.1875,250.5,206.1875" style="stroke: #A80036; stroke-width: 1.0;"/><text fill="#000000" font-family="sans-serif" font-size="13" lengthAdjust="spacingAndGlyphs" textLength="30" x="250.5" y="188.1216">build</text><text fill="#000000" font-family="sans-serif" font-size="13" font-weight="bold" lengthAdjust="spacingAndGlyphs" textLength="145" x="284.5" y="188.1216">HttpServletRequest</text><line style="stroke: #A80036; stroke-width: 1.0;" x1="243.5" x2="285.5" y1="295.5859" y2="295.5859"/><line style="stroke: #A80036; stroke-width: 1.0;" x1="285.5" x2="285.5" y1="295.5859" y2="308.5859"/><line style="stroke: #A80036; stroke-width: 1.0;" x1="244.5" x2="285.5" y1="308.5859" y2="308.5859"/><polygon fill="#A80036" points="254.5,304.5859,244.5,308.5859,254.5,312.5859,250.5,308.5859" style="stroke: #A80036; stroke-width: 1.0;"/><text fill="#000000" font-family="sans-serif" font-size="13" lengthAdjust="spacingAndGlyphs" textLength="19" x="250.5" y="260.2544">init</text><text fill="#000000" font-family="sans-serif" font-size="13" font-weight="bold" lengthAdjust="spacingAndGlyphs" textLength="156" x="273.5" y="260.2544">HttpServletResponse</text><ellipse cx="256" cy="270.9531" fill="#000000" rx="2.5" ry="2.5" style="stroke: #000000; stroke-width: 0.0;"/><text fill="#000000" font-family="sans-serif" font-size="13" lengthAdjust="spacingAndGlyphs" textLength="223" x="261.5" y="275.3872">set Content-Type (application/json)</text><ellipse cx="256" cy="286.0859" fill="#000000" rx="2.5" ry="2.5" style="stroke: #000000; stroke-width: 0.0;"/><text fill="#000000" font-family="sans-serif" font-size="13" lengthAdjust="spacingAndGlyphs" textLength="12" x="261.5" y="290.52">...</text><polygon fill="#A80036" points="642,363.7188,652,367.7188,642,371.7188,646,367.7188" style="stroke: #A80036; stroke-width: 1.0;"/><line style="stroke: #A80036; stroke-width: 1.0;" x1="238.5" x2="648" y1="367.7188" y2="367.7188"/><text fill="#000000" font-family="sans-serif" font-size="13" lengthAdjust="spacingAndGlyphs" textLength="171" x="245.5" y="362.6528">ask controller/action to call</text><polygon fill="#A80036" points="249.5,392.8516,239.5,396.8516,249.5,400.8516,245.5,396.8516" style="stroke: #A80036; stroke-width: 1.0;"/><line style="stroke: #A80036; stroke-width: 1.0; stroke-dasharray: 2.0,2.0;" x1="243.5" x2="658" y1="396.8516" y2="396.8516"/><text fill="#000000" font-family="sans-serif" font-size="13" lengthAdjust="spacingAndGlyphs" textLength="146" x="255.5" y="391.7856">"UserController::getAll"</text><polygon fill="#A80036" points="792.5,421.9844,802.5,425.9844,792.5,429.9844,796.5,425.9844" style="stroke: #A80036; stroke-width: 1.0;"/><line style="stroke: #A80036; stroke-width: 1.0;" x1="238.5" x2="798.5" y1="425.9844" y2="425.9844"/><text fill="#000000" font-family="sans-serif" font-size="13" lengthAdjust="spacingAndGlyphs" textLength="46" x="245.5" y="420.9185">getAll()</text><polygon fill="#A80036" points="951,451.1172,961,455.1172,951,459.1172,955,455.1172" style="stroke: #A80036; stroke-width: 1.0;"/><line style="stroke: #A80036; stroke-width: 1.0;" x1="814.5" x2="957" y1="455.1172" y2="455.1172"/><text fill="#000000" font-family="sans-serif" font-size="13" lengthAdjust="spacingAndGlyphs" textLength="76" x="821.5" y="450.0513">ask process</text><polygon fill="#A80036" points="1147,480.25,1157,484.25,1147,488.25,1151,484.25" style="stroke: #A80036; stroke-width: 1.0;"/><line style="stroke: #A80036; stroke-width: 1.0;" x1="973" x2="1153" y1="484.25" y2="484.25"/><text fill="#000000" font-family="sans-serif" font-size="13" lengthAdjust="spacingAndGlyphs" textLength="48" x="980" y="479.1841">findAll()</text><polygon fill="#A80036" points="1367,509.3828,1377,513.3828,1367,517.3828,1371,513.3828" style="stroke: #A80036; stroke-width: 1.0;"/><line style="stroke: #A80036; stroke-width: 1.0;" x1="1169" x2="1373" y1="513.3828" y2="513.3828"/><text fill="#000000" font-family="sans-serif" font-size="13" lengthAdjust="spacingAndGlyphs" textLength="48" x="1176" y="508.3169">findAll()</text><polygon fill="#A80036" points="1544,538.5156,1554,542.5156,1544,546.5156,1548,542.5156" style="stroke: #A80036; stroke-width: 1.0;"/><line style="stroke: #A80036; stroke-width: 1.0;" x1="1389" x2="1550" y1="542.5156" y2="542.5156"/><text fill="#000000" font-family="sans-serif" font-size="13" lengthAdjust="spacingAndGlyphs" textLength="142" x="1396" y="537.4497">SELECT * FROM users;</text><rect fill="#EEEEEE" filter="url(#flsfpyizetwm2)" height="3" style="stroke: #EEEEEE; stroke-width: 1.0;" width="1598" x="3" y="571.082"/><line style="stroke: #000000; stroke-width: 1.0;" x1="3" x2="1601" y1="571.082" y2="571.082"/><line style="stroke: #000000; stroke-width: 1.0;" x1="3" x2="1601" y1="574.082" y2="574.082"/><rect fill="#EEEEEE" filter="url(#flsfpyizetwm2)" height="23.1328" style="stroke: #000000; stroke-width: 2.0;" width="68" x="768" y="560.5156"/><text fill="#000000" font-family="sans-serif" font-size="13" font-weight="bold" lengthAdjust="spacingAndGlyphs" textLength="49" x="774" y="576.5825">Retour</text><polygon fill="#A80036" points="1400,610.7813,1390,614.7813,1400,618.7813,1396,614.7813" style="stroke: #A80036; stroke-width: 1.0;"/><line style="stroke: #A80036; stroke-width: 1.0; stroke-dasharray: 2.0,2.0;" x1="1394" x2="1560" y1="614.7813" y2="614.7813"/><text fill="#000000" font-family="sans-serif" font-size="13" lengthAdjust="spacingAndGlyphs" textLength="87" x="1406" y="609.7153">Données brut</text><polygon fill="#A80036" points="1180,639.9141,1170,643.9141,1180,647.9141,1176,643.9141" style="stroke: #A80036; stroke-width: 1.0;"/><line style="stroke: #A80036; stroke-width: 1.0; stroke-dasharray: 2.0,2.0;" x1="1174" x2="1383" y1="643.9141" y2="643.9141"/><text fill="#000000" font-family="sans-serif" font-size="13" lengthAdjust="spacingAndGlyphs" textLength="130" x="1186" y="638.8481">ResultSet (données)</text><line style="stroke: #A80036; stroke-width: 1.0;" x1="1174" x2="1216" y1="673.0469" y2="673.0469"/><line style="stroke: #A80036; stroke-width: 1.0;" x1="1216" x2="1216" y1="673.0469" y2="686.0469"/><line style="stroke: #A80036; stroke-width: 1.0;" x1="1175" x2="1216" y1="686.0469" y2="686.0469"/><polygon fill="#A80036" points="1185,682.0469,1175,686.0469,1185,690.0469,1181,686.0469" style="stroke: #A80036; stroke-width: 1.0;"/><text fill="#000000" font-family="sans-serif" font-size="13" lengthAdjust="spacingAndGlyphs" textLength="190" x="1181" y="667.981">convert ResultSet to object(s)</text><polygon fill="#A80036" points="984,741.1797,974,745.1797,984,749.1797,980,745.1797" style="stroke: #A80036; stroke-width: 1.0;"/><line style="stroke: #A80036; stroke-width: 1.0; stroke-dasharray: 2.0,2.0;" x1="978" x2="1163" y1="745.1797" y2="745.1797"/><text fill="#000000" font-family="sans-serif" font-size="13" lengthAdjust="spacingAndGlyphs" textLength="64" x="990" y="740.1138">données (</text><text fill="#000000" font-family="sans-serif" font-size="13" font-weight="bold" lengthAdjust="spacingAndGlyphs" textLength="93" x="1054" y="740.1138">Page&lt;User&gt;</text><text fill="#000000" font-family="sans-serif" font-size="13" lengthAdjust="spacingAndGlyphs" textLength="5" x="1147" y="740.1138">)</text><polygon fill="#A80036" points="825.5,770.3125,815.5,774.3125,825.5,778.3125,821.5,774.3125" style="stroke: #A80036; stroke-width: 1.0;"/><line style="stroke: #A80036; stroke-width: 1.0; stroke-dasharray: 2.0,2.0;" x1="819.5" x2="967" y1="774.3125" y2="774.3125"/><text fill="#000000" font-family="sans-serif" font-size="13" lengthAdjust="spacingAndGlyphs" textLength="84" x="831.5" y="769.2466">Page&lt;User&gt;</text><polygon fill="#A80036" points="249.5,799.4453,239.5,803.4453,249.5,807.4453,245.5,803.4453" style="stroke: #A80036; stroke-width: 1.0;"/><line style="stroke: #A80036; stroke-width: 1.0; stroke-dasharray: 2.0,2.0;" x1="243.5" x2="808.5" y1="803.4453" y2="803.4453"/><text fill="#000000" font-family="sans-serif" font-size="13" lengthAdjust="spacingAndGlyphs" textLength="84" x="255.5" y="798.3794">Page&lt;User&gt;</text><polygon fill="#A80036" points="474.5,828.5781,484.5,832.5781,474.5,836.5781,478.5,832.5781" style="stroke: #A80036; stroke-width: 1.0;"/><line style="stroke: #A80036; stroke-width: 1.0;" x1="238.5" x2="480.5" y1="832.5781" y2="832.5781"/><text fill="#000000" font-family="sans-serif" font-size="13" font-weight="bold" lengthAdjust="spacingAndGlyphs" textLength="61" x="245.5" y="827.5122">serialize</text><text fill="#000000" font-family="sans-serif" font-size="13" lengthAdjust="spacingAndGlyphs" textLength="127" x="310.5" y="827.5122">data (Page&lt;User&gt;)</text><polygon fill="#A80036" points="249.5,857.7109,239.5,861.7109,249.5,865.7109,245.5,861.7109" style="stroke: #A80036; stroke-width: 1.0;"/><line style="stroke: #A80036; stroke-width: 1.0; stroke-dasharray: 2.0,2.0;" x1="243.5" x2="490.5" y1="861.7109" y2="861.7109"/><text fill="#000000" font-family="sans-serif" font-size="13" lengthAdjust="spacingAndGlyphs" textLength="32" x="255.5" y="856.645">JSON</text><line style="stroke: #A80036; stroke-width: 1.0;" x1="243.5" x2="285.5" y1="890.8438" y2="890.8438"/><line style="stroke: #A80036; stroke-width: 1.0;" x1="285.5" x2="285.5" y1="890.8438" y2="903.8438"/><line style="stroke: #A80036; stroke-width: 1.0;" x1="244.5" x2="285.5" y1="903.8438" y2="903.8438"/><polygon fill="#A80036" points="254.5,899.8438,244.5,903.8438,254.5,907.8438,250.5,903.8438" style="stroke: #A80036; stroke-width: 1.0;"/><text fill="#000000" font-family="sans-serif" font-size="13" lengthAdjust="spacingAndGlyphs" textLength="182" x="250.5" y="885.7778">set response content (JSON)</text><polygon fill="#A80036" points="54.5,974.1094,44.5,978.1094,54.5,982.1094,50.5,978.1094" style="stroke: #A80036; stroke-width: 1.0;"/><line style="stroke: #A80036; stroke-width: 1.0; stroke-dasharray: 2.0,2.0;" x1="48.5" x2="227.5" y1="978.1094" y2="978.1094"/><text fill="#000000" font-family="sans-serif" font-size="13" lengthAdjust="spacingAndGlyphs" textLength="71" x="60.5" y="957.9106">returns the</text><text fill="#000000" font-family="sans-serif" font-size="13" font-weight="bold" lengthAdjust="spacingAndGlyphs" textLength="156" x="60.5" y="973.0435">HttpServletResponse</text><!--
@startuml Seq - - Get user list (detailed)
    skinparam backgroundColor #EEEEEE
    skinparam RoundCorner 20
    skinparam sequence {
        ParticipantFontName Impact
        ParticipantFontSize 17

        ActorFontSize 17
        ActorFontName Aapex
    }

    actor "Angular" as client


    box "Spring"#Orange-Darkorange
        participant "Spring" as spring
        participant "Jackson <b>Serializer</b>" as jms
        participant "Spring <b>Router</b>" as router
    end box

    box "Server"#LightYellow-Yellow
        participant "UserController" as controller
        participant "UserCrudService" as service
        participant "UserRepository" as repo

    end box

    box Connector#LightGreen-YellowGreen
        participant "JDBC" as jdbc
    end box

    database "Mysql DB" as db #Blue


    == Aller ==
        activate client

            client -> spring: ask user list
            activate spring
        spring <- spring: build <b>HttpServletRequest</b>
        activate spring
        deactivate spring
        spring <- spring: init <b>HttpServletResponse</b>\n* set Content-Type (application/json)\n* ...
        activate spring
        deactivate spring

            spring -> router: ask controller/action to call
            activate router
            spring <- - router: "UserController::getAll"
            deactivate router
            spring -> controller: getAll()

        activate controller
        controller -> service: ask process
        activate service
        service -> repo: findAll()
        activate repo
        repo -> jdbc: findAll()
        activate jdbc
        jdbc -> db: SELECT * FROM users;
        activate db


    == Retour ==
        jdbc <- - db: Données brut
        deactivate db
        repo <- - jdbc: ResultSet (données)
        deactivate jdbc
        repo <- repo: convert ResultSet to object(s)
        activate repo
        deactivate repo
        service <- - repo: données (<b>Page<User></b>)
        deactivate repo
        controller <- - service: Page<User>
        deactivate service

            spring <- - controller: Page<User>
            deactivate controller

            spring -> jms: <b>serialize</b> data (Page<User>)
            activate jms
            spring <- - jms: JSON
            deactivate jms

        spring <- spring: set response content (JSON)
        activate spring
        deactivate spring

            client <- - spring: returns the\n<b>HttpServletResponse</b>

        deactivate client
@enduml

PlantUML version 1.2019.06(Fri May 24 19:10:25 CEST 2019)
(GPL source distribution)
Java Runtime: OpenJDK Runtime Environment
JVM: OpenJDK 64-Bit Server VM
Java Version: 1.8.0_222-8u222-b10-1~deb9u1-b10
Operating System: Linux
OS Version: 5.2.0-3-amd64
Default Encoding: UTF-8
Language: fr
Country: FR
--></g></svg>