<?xml version="1.0" encoding="UTF-8" standalone="no"?><svg xmlns="http://www.w3.org/2000/svg" xmlns:xlink="http://www.w3.org/1999/xlink" contentScriptType="application/ecmascript" contentStyleType="text/css" height="660px" preserveAspectRatio="none" style="width:977px;height:660px;background:#EEEEEE;" version="1.1" viewBox="0 0 977 660" width="977px" zoomAndPan="magnify"><defs><linearGradient id="g11lqutaijzwl10" x1="50%" x2="50%" y1="0%" y2="100%"><stop offset="0%" stop-color="#FFFFE0"/><stop offset="100%" stop-color="#FFFF00"/></linearGradient><linearGradient id="g11lqutaijzwl11" x1="50%" x2="50%" y1="0%" y2="100%"><stop offset="0%" stop-color="#90EE90"/><stop offset="100%" stop-color="#9ACD32"/></linearGradient><filter height="300%" id="f11lqutaijzwl1" width="300%" x="-1" y="-1"><feGaussianBlur result="blurOut" stdDeviation="2.0"/><feColorMatrix in="blurOut" result="blurOut2" type="matrix" values="0 0 0 0 0 0 0 0 0 0 0 0 0 0 0 0 0 0 .4 0"/><feOffset dx="4.0" dy="4.0" in="blurOut2" result="blurOut3"/><feBlend in="SourceGraphic" in2="blurOut3" mode="normal"/></filter></defs><g><rect fill="url(#g11lqutaijzwl10)" height="645.3047" rx="10" ry="10" style="stroke: #A80036; stroke-width: 1.0;" width="505" x="99.5" y="4"/><text fill="#000000" font-family="sans-serif" font-size="13" font-weight="bold" lengthAdjust="spacingAndGlyphs" textLength="47" x="328.5" y="16.0669">Server</text><rect fill="url(#g11lqutaijzwl11)" height="645.3047" rx="10" ry="10" style="stroke: #A80036; stroke-width: 1.0;" width="81" x="707.5" y="4"/><text fill="#000000" font-family="sans-serif" font-size="13" font-weight="bold" lengthAdjust="spacingAndGlyphs" textLength="75" x="710.5" y="16.0669">Connector</text><rect fill="#FFFFFF" filter="url(#f11lqutaijzwl1)" height="441.7266" style="stroke: #A80036; stroke-width: 1.0;" width="10" x="38.5" y="99.7891"/><rect fill="#FFFFFF" filter="url(#f11lqutaijzwl1)" height="377.4609" style="stroke: #A80036; stroke-width: 1.0;" width="10" x="168.5" y="164.0547"/><rect fill="#FFFFFF" filter="url(#f11lqutaijzwl1)" height="319.1953" style="stroke: #A80036; stroke-width: 1.0;" width="10" x="327" y="193.1875"/><rect fill="#FFFFFF" filter="url(#f11lqutaijzwl1)" height="260.9297" style="stroke: #A80036; stroke-width: 1.0;" width="10" x="523" y="222.3203"/><rect fill="#FFFFFF" filter="url(#f11lqutaijzwl1)" height="28" style="stroke: #A80036; stroke-width: 1.0;" width="10" x="528" y="419.1172"/><rect fill="#FFFFFF" filter="url(#f11lqutaijzwl1)" height="130.5313" style="stroke: #A80036; stroke-width: 1.0;" width="10" x="743" y="251.4531"/><rect fill="#FFFFFF" filter="url(#f11lqutaijzwl1)" height="72.2656" style="stroke: #A80036; stroke-width: 1.0;" width="10" x="920" y="280.5859"/><line style="stroke: #A80036; stroke-width: 1.0; stroke-dasharray: 5.0,5.0;" x1="43" x2="43" y1="89.7891" y2="559.5156"/><line style="stroke: #A80036; stroke-width: 1.0; stroke-dasharray: 5.0,5.0;" x1="173.5" x2="173.5" y1="89.7891" y2="559.5156"/><line style="stroke: #A80036; stroke-width: 1.0; stroke-dasharray: 5.0,5.0;" x1="331.5" x2="331.5" y1="89.7891" y2="559.5156"/><line style="stroke: #A80036; stroke-width: 1.0; stroke-dasharray: 5.0,5.0;" x1="527.5" x2="527.5" y1="89.7891" y2="559.5156"/><line style="stroke: #A80036; stroke-width: 1.0; stroke-dasharray: 5.0,5.0;" x1="747.5" x2="747.5" y1="89.7891" y2="559.5156"/><line style="stroke: #A80036; stroke-width: 1.0; stroke-dasharray: 5.0,5.0;" x1="925" x2="925" y1="89.7891" y2="559.5156"/><text fill="#000000" font-family="Aapex" font-size="17" lengthAdjust="spacingAndGlyphs" textLength="65" x="8" y="85.7798">Angular</text><ellipse cx="43.5" cy="13" fill="#FEFECE" filter="url(#f11lqutaijzwl1)" rx="8" ry="8" style="stroke: #A80036; stroke-width: 2.0;"/><path d="M43.5,21 L43.5,48 M30.5,29 L56.5,29 M43.5,48 L30.5,63 M43.5,48 L56.5,63 " fill="none" filter="url(#f11lqutaijzwl1)" style="stroke: #A80036; stroke-width: 2.0;"/><text fill="#000000" font-family="Aapex" font-size="17" lengthAdjust="spacingAndGlyphs" textLength="65" x="8" y="574.2954">Angular</text><ellipse cx="43.5" cy="588.3047" fill="#FEFECE" filter="url(#f11lqutaijzwl1)" rx="8" ry="8" style="stroke: #A80036; stroke-width: 2.0;"/><path d="M43.5,596.3047 L43.5,623.3047 M30.5,604.3047 L56.5,604.3047 M43.5,623.3047 L30.5,638.3047 M43.5,623.3047 L56.5,638.3047 " fill="none" filter="url(#f11lqutaijzwl1)" style="stroke: #A80036; stroke-width: 2.0;"/><rect fill="#FEFECE" filter="url(#f11lqutaijzwl1)" height="33.7891" rx="10" ry="10" style="stroke: #A80036; stroke-width: 1.5;" width="136" x="103.5" y="51"/><text fill="#000000" font-family="Impact" font-size="17" lengthAdjust="spacingAndGlyphs" textLength="122" x="110.5" y="73.7798">UserController</text><rect fill="#FEFECE" filter="url(#f11lqutaijzwl1)" height="33.7891" rx="10" ry="10" style="stroke: #A80036; stroke-width: 1.5;" width="136" x="103.5" y="558.5156"/><text fill="#000000" font-family="Impact" font-size="17" lengthAdjust="spacingAndGlyphs" textLength="122" x="110.5" y="581.2954">UserController</text><rect fill="#FEFECE" filter="url(#f11lqutaijzwl1)" height="33.7891" rx="10" ry="10" style="stroke: #A80036; stroke-width: 1.5;" width="153" x="253.5" y="51"/><text fill="#000000" font-family="Impact" font-size="17" lengthAdjust="spacingAndGlyphs" textLength="139" x="260.5" y="73.7798">UserCrudService</text><rect fill="#FEFECE" filter="url(#f11lqutaijzwl1)" height="33.7891" rx="10" ry="10" style="stroke: #A80036; stroke-width: 1.5;" width="153" x="253.5" y="558.5156"/><text fill="#000000" font-family="Impact" font-size="17" lengthAdjust="spacingAndGlyphs" textLength="139" x="260.5" y="581.2954">UserCrudService</text><rect fill="#FEFECE" filter="url(#f11lqutaijzwl1)" height="33.7891" rx="10" ry="10" style="stroke: #A80036; stroke-width: 1.5;" width="141" x="455.5" y="51"/><text fill="#000000" font-family="Impact" font-size="17" lengthAdjust="spacingAndGlyphs" textLength="127" x="462.5" y="73.7798">UserRepository</text><rect fill="#FEFECE" filter="url(#f11lqutaijzwl1)" height="33.7891" rx="10" ry="10" style="stroke: #A80036; stroke-width: 1.5;" width="141" x="455.5" y="558.5156"/><text fill="#000000" font-family="Impact" font-size="17" lengthAdjust="spacingAndGlyphs" textLength="127" x="462.5" y="581.2954">UserRepository</text><rect fill="#FEFECE" filter="url(#f11lqutaijzwl1)" height="33.7891" rx="10" ry="10" style="stroke: #A80036; stroke-width: 1.5;" width="57" x="717.5" y="51"/><text fill="#000000" font-family="Impact" font-size="17" lengthAdjust="spacingAndGlyphs" textLength="43" x="724.5" y="73.7798">JDBC</text><rect fill="#FEFECE" filter="url(#f11lqutaijzwl1)" height="33.7891" rx="10" ry="10" style="stroke: #A80036; stroke-width: 1.5;" width="57" x="717.5" y="558.5156"/><text fill="#000000" font-family="Impact" font-size="17" lengthAdjust="spacingAndGlyphs" textLength="43" x="724.5" y="581.2954">JDBC</text><text fill="#000000" font-family="sans-serif" font-size="14" lengthAdjust="spacingAndGlyphs" textLength="64" x="890" y="86.4873">Mysql DB</text><path d="M907,37.4922 C907,27.4922 925,27.4922 925,27.4922 C925,27.4922 943,27.4922 943,37.4922 L943,63.4922 C943,73.4922 925,73.4922 925,73.4922 C925,73.4922 907,73.4922 907,63.4922 L907,37.4922 " fill="#0000FF" filter="url(#f11lqutaijzwl1)" style="stroke: #000000; stroke-width: 1.5;"/><path d="M907,37.4922 C907,47.4922 925,47.4922 925,47.4922 C925,47.4922 943,47.4922 943,37.4922 " fill="none" style="stroke: #000000; stroke-width: 1.5;"/><text fill="#000000" font-family="sans-serif" font-size="14" lengthAdjust="spacingAndGlyphs" textLength="64" x="890" y="571.5107">Mysql DB</text><path d="M907,584.8125 C907,574.8125 925,574.8125 925,574.8125 C925,574.8125 943,574.8125 943,584.8125 L943,610.8125 C943,620.8125 925,620.8125 925,620.8125 C925,620.8125 907,620.8125 907,610.8125 L907,584.8125 " fill="#0000FF" filter="url(#f11lqutaijzwl1)" style="stroke: #000000; stroke-width: 1.5;"/><path d="M907,584.8125 C907,594.8125 925,594.8125 925,594.8125 C925,594.8125 943,594.8125 943,584.8125 " fill="none" style="stroke: #000000; stroke-width: 1.5;"/><rect fill="#FFFFFF" filter="url(#f11lqutaijzwl1)" height="441.7266" style="stroke: #A80036; stroke-width: 1.0;" width="10" x="38.5" y="99.7891"/><rect fill="#FFFFFF" filter="url(#f11lqutaijzwl1)" height="377.4609" style="stroke: #A80036; stroke-width: 1.0;" width="10" x="168.5" y="164.0547"/><rect fill="#FFFFFF" filter="url(#f11lqutaijzwl1)" height="319.1953" style="stroke: #A80036; stroke-width: 1.0;" width="10" x="327" y="193.1875"/><rect fill="#FFFFFF" filter="url(#f11lqutaijzwl1)" height="260.9297" style="stroke: #A80036; stroke-width: 1.0;" width="10" x="523" y="222.3203"/><rect fill="#FFFFFF" filter="url(#f11lqutaijzwl1)" height="28" style="stroke: #A80036; stroke-width: 1.0;" width="10" x="528" y="419.1172"/><rect fill="#FFFFFF" filter="url(#f11lqutaijzwl1)" height="130.5313" style="stroke: #A80036; stroke-width: 1.0;" width="10" x="743" y="251.4531"/><rect fill="#FFFFFF" filter="url(#f11lqutaijzwl1)" height="72.2656" style="stroke: #A80036; stroke-width: 1.0;" width="10" x="920" y="280.5859"/><rect fill="#EEEEEE" filter="url(#f11lqutaijzwl1)" height="3" style="stroke: #EEEEEE; stroke-width: 1.0;" width="962" x="3" y="120.3555"/><line style="stroke: #000000; stroke-width: 1.0;" x1="3" x2="965" y1="120.3555" y2="120.3555"/><line style="stroke: #000000; stroke-width: 1.0;" x1="3" x2="965" y1="123.3555" y2="123.3555"/><rect fill="#EEEEEE" filter="url(#f11lqutaijzwl1)" height="23.1328" style="stroke: #000000; stroke-width: 2.0;" width="52" x="458" y="109.7891"/><text fill="#000000" font-family="sans-serif" font-size="13" font-weight="bold" lengthAdjust="spacingAndGlyphs" textLength="33" x="464" y="125.856">Aller</text><polygon fill="#A80036" points="156.5,160.0547,166.5,164.0547,156.5,168.0547,160.5,164.0547" style="stroke: #A80036; stroke-width: 1.0;"/><line style="stroke: #A80036; stroke-width: 1.0;" x1="48.5" x2="162.5" y1="164.0547" y2="164.0547"/><text fill="#000000" font-family="sans-serif" font-size="13" lengthAdjust="spacingAndGlyphs" textLength="76" x="55.5" y="158.9888">ask user list</text><polygon fill="#A80036" points="315,189.1875,325,193.1875,315,197.1875,319,193.1875" style="stroke: #A80036; stroke-width: 1.0;"/><line style="stroke: #A80036; stroke-width: 1.0;" x1="178.5" x2="321" y1="193.1875" y2="193.1875"/><text fill="#000000" font-family="sans-serif" font-size="13" lengthAdjust="spacingAndGlyphs" textLength="76" x="185.5" y="188.1216">ask process</text><polygon fill="#A80036" points="511,218.3203,521,222.3203,511,226.3203,515,222.3203" style="stroke: #A80036; stroke-width: 1.0;"/><line style="stroke: #A80036; stroke-width: 1.0;" x1="337" x2="517" y1="222.3203" y2="222.3203"/><text fill="#000000" font-family="sans-serif" font-size="13" lengthAdjust="spacingAndGlyphs" textLength="48" x="344" y="217.2544">findAll()</text><polygon fill="#A80036" points="731,247.4531,741,251.4531,731,255.4531,735,251.4531" style="stroke: #A80036; stroke-width: 1.0;"/><line style="stroke: #A80036; stroke-width: 1.0;" x1="533" x2="737" y1="251.4531" y2="251.4531"/><text fill="#000000" font-family="sans-serif" font-size="13" lengthAdjust="spacingAndGlyphs" textLength="48" x="540" y="246.3872">findAll()</text><polygon fill="#A80036" points="908,276.5859,918,280.5859,908,284.5859,912,280.5859" style="stroke: #A80036; stroke-width: 1.0;"/><line style="stroke: #A80036; stroke-width: 1.0;" x1="753" x2="914" y1="280.5859" y2="280.5859"/><text fill="#000000" font-family="sans-serif" font-size="13" lengthAdjust="spacingAndGlyphs" textLength="142" x="760" y="275.52">SELECT * FROM users;</text><rect fill="#EEEEEE" filter="url(#f11lqutaijzwl1)" height="3" style="stroke: #EEEEEE; stroke-width: 1.0;" width="962" x="3" y="309.1523"/><line style="stroke: #000000; stroke-width: 1.0;" x1="3" x2="965" y1="309.1523" y2="309.1523"/><line style="stroke: #000000; stroke-width: 1.0;" x1="3" x2="965" y1="312.1523" y2="312.1523"/><rect fill="#EEEEEE" filter="url(#f11lqutaijzwl1)" height="23.1328" style="stroke: #000000; stroke-width: 2.0;" width="68" x="450" y="298.5859"/><text fill="#000000" font-family="sans-serif" font-size="13" font-weight="bold" lengthAdjust="spacingAndGlyphs" textLength="49" x="456" y="314.6528">Retour</text><polygon fill="#A80036" points="764,348.8516,754,352.8516,764,356.8516,760,352.8516" style="stroke: #A80036; stroke-width: 1.0;"/><line style="stroke: #A80036; stroke-width: 1.0; stroke-dasharray: 2.0,2.0;" x1="758" x2="924" y1="352.8516" y2="352.8516"/><text fill="#000000" font-family="sans-serif" font-size="13" lengthAdjust="spacingAndGlyphs" textLength="87" x="770" y="347.7856">Données brut</text><polygon fill="#A80036" points="544,377.9844,534,381.9844,544,385.9844,540,381.9844" style="stroke: #A80036; stroke-width: 1.0;"/><line style="stroke: #A80036; stroke-width: 1.0; stroke-dasharray: 2.0,2.0;" x1="538" x2="747" y1="381.9844" y2="381.9844"/><text fill="#000000" font-family="sans-serif" font-size="13" lengthAdjust="spacingAndGlyphs" textLength="130" x="550" y="376.9185">ResultSet (données)</text><line style="stroke: #A80036; stroke-width: 1.0;" x1="538" x2="580" y1="411.1172" y2="411.1172"/><line style="stroke: #A80036; stroke-width: 1.0;" x1="580" x2="580" y1="411.1172" y2="424.1172"/><line style="stroke: #A80036; stroke-width: 1.0;" x1="539" x2="580" y1="424.1172" y2="424.1172"/><polygon fill="#A80036" points="549,420.1172,539,424.1172,549,428.1172,545,424.1172" style="stroke: #A80036; stroke-width: 1.0;"/><text fill="#000000" font-family="sans-serif" font-size="13" lengthAdjust="spacingAndGlyphs" textLength="190" x="545" y="406.0513">convert ResultSet to object(s)</text><polygon fill="#A80036" points="348,479.25,338,483.25,348,487.25,344,483.25" style="stroke: #A80036; stroke-width: 1.0;"/><line style="stroke: #A80036; stroke-width: 1.0; stroke-dasharray: 2.0,2.0;" x1="342" x2="527" y1="483.25" y2="483.25"/><text fill="#000000" font-family="sans-serif" font-size="13" lengthAdjust="spacingAndGlyphs" textLength="64" x="354" y="478.1841">données (</text><text fill="#000000" font-family="sans-serif" font-size="13" font-weight="bold" lengthAdjust="spacingAndGlyphs" textLength="93" x="418" y="478.1841">Page&lt;User&gt;</text><text fill="#000000" font-family="sans-serif" font-size="13" lengthAdjust="spacingAndGlyphs" textLength="5" x="511" y="478.1841">)</text><polygon fill="#A80036" points="189.5,508.3828,179.5,512.3828,189.5,516.3828,185.5,512.3828" style="stroke: #A80036; stroke-width: 1.0;"/><line style="stroke: #A80036; stroke-width: 1.0; stroke-dasharray: 2.0,2.0;" x1="183.5" x2="331" y1="512.3828" y2="512.3828"/><text fill="#000000" font-family="sans-serif" font-size="13" lengthAdjust="spacingAndGlyphs" textLength="84" x="195.5" y="507.3169">Page&lt;User&gt;</text><polygon fill="#A80036" points="54.5,537.5156,44.5,541.5156,54.5,545.5156,50.5,541.5156" style="stroke: #A80036; stroke-width: 1.0;"/><line style="stroke: #A80036; stroke-width: 1.0; stroke-dasharray: 2.0,2.0;" x1="48.5" x2="172.5" y1="541.5156" y2="541.5156"/><text fill="#000000" font-family="sans-serif" font-size="13" lengthAdjust="spacingAndGlyphs" textLength="96" x="60.5" y="536.4497">user list (JSON)</text><!--
@startuml Seq - - Get user list (simple)


    skinparam backgroundColor #EEEEEE
    skinparam RoundCorner 20
    skinparam sequence {
        ParticipantFontName Impact
        ParticipantFontSize 17

        ActorFontSize 17
        ActorFontName Aapex
    }

    actor "Angular" as client



    box "Server"#LightYellow-Yellow
        participant "UserController" as controller
        participant "UserCrudService" as service
        participant "UserRepository" as repo

    end box

    box Connector#LightGreen-YellowGreen
        participant "JDBC" as jdbc
    end box

    database "Mysql DB" as db #Blue


    == Aller ==
        activate client

            client -> controller: ask user list

        activate controller
        controller -> service: ask process
        activate service
        service -> repo: findAll()
        activate repo
        repo -> jdbc: findAll()
        activate jdbc
        jdbc -> db: SELECT * FROM users;
        activate db


    == Retour ==
        jdbc <- - db: Données brut
        deactivate db
        repo <- - jdbc: ResultSet (données)
        deactivate jdbc
        repo <- repo: convert ResultSet to object(s)
        activate repo
        deactivate repo
        service <- - repo: données (<b>Page<User></b>)
        deactivate repo
        controller <- - service: Page<User>
        deactivate service

            client <- - controller: user list (JSON)

            deactivate controller

        deactivate client
@enduml

PlantUML version 1.2019.06(Fri May 24 19:10:25 CEST 2019)
(GPL source distribution)
Java Runtime: OpenJDK Runtime Environment
JVM: OpenJDK 64-Bit Server VM
Java Version: 1.8.0_222-8u222-b10-1~deb9u1-b10
Operating System: Linux
OS Version: 5.2.0-3-amd64
Default Encoding: UTF-8
Language: fr
Country: FR
--></g></svg>